<?xml version="1.0" standalone="no"?><svg xmlns:xlink="http://www.w3.org/1999/xlink" xmlns="http://www.w3.org/2000/svg" viewBox="0 0 1000 722.2211410277617" preserveAspectRatio="xMaxYMax slice"><g transform="scale(0.9730750143528564)"><rect x="0" y="0" width="1027.6892307692308" height="742.22" fill="#ffffff"/><path d="M 0 0 A 57.09 57.09 0 0 1  57.09 57.09 L 0 0 A 57.09 57.09 0 0 0 57.09 57.09" fill="#ffa7b0"/><rect x="285.46923076923076" y="0" width="57.09384615384616" height="57.09384615384616" fill="#ffffff"/><path d="M 285.47 28.55 A 28.55 28.55 0 0 1  314.02000000000004 0 L 285.47 28.55 A 28.55 28.55 0 0 0 314.02000000000004 0" fill="#fff2f3"/><path d="M 314.02 0 A 28.55 28.55 0 0 1  342.57 28.55 L 314.02 0 A 28.55 28.55 0 0 0 342.57 28.55" fill="#fff2f3"/><path d="M 285.47 57.1 A 28.55 28.55 0 0 1  314.02000000000004 28.55 L 285.47 57.1 A 28.55 28.55 0 0 0 314.02000000000004 28.55" fill="#fedade"/><rect x="399.65692307692314" y="0" width="57.09384615384616" height="57.09384615384616" fill="#ffffff"/><path d="M 399.66 0 A 28.55 28.55 0 0 1  428.21000000000004 28.55 L 399.66 0 A 28.55 28.55 0 0 0 428.21000000000004 28.55" fill="#ffe5e8"/><path d="M 399.66 57.1 A 28.55 28.55 0 0 1  428.21000000000004 28.55 L 399.66 57.1 A 28.55 28.55 0 0 0 428.21000000000004 28.55" fill="#fecfd4"/><rect x="513.8446153846154" y="0" width="57.09384615384616" height="57.09384615384616" fill="#ffffff"/><path d="M 542.39 57.1 A 28.55 28.55 0 0 1  570.9399999999999 28.55 L 542.39 57.1 A 28.55 28.55 0 0 0 570.9399999999999 28.55" fill="#ffbfc5"/><path d="M 570.94 0 A 57.09 57.09 0 0 1  628.0300000000001 57.09 L 570.94 0 A 57.09 57.09 0 0 0 628.0300000000001 57.09" fill="#fff3f4"/><path d="M 628.03 57.09 A 57.09 57.09 0 0 1  685.12 0 L 628.03 57.09 A 57.09 57.09 0 0 0 685.12 0" fill="#fff3f5"/><rect x="742.22" y="0" width="57.09384615384616" height="57.09384615384616" fill="#ffffff"/><path d="M 742.22 0 A 28.55 28.55 0 0 1  770.77 28.55 L 742.22 0 A 28.55 28.55 0 0 0 770.77 28.55" fill="#fff0f2"/><path d="M 770.77 28.55 A 28.55 28.55 0 0 1  799.3199999999999 0 L 770.77 28.55 A 28.55 28.55 0 0 0 799.3199999999999 0" fill="#ffe4e7"/><path d="M 742.22 28.55 A 28.55 28.55 0 0 1  770.77 57.1 L 742.22 28.55 A 28.55 28.55 0 0 0 770.77 57.1" fill="#ffe9ec"/><path d="M 770.77 57.1 A 28.55 28.55 0 0 1  799.3199999999999 28.55 L 770.77 57.1 A 28.55 28.55 0 0 0 799.3199999999999 28.55" fill="#fff3f4"/><path d="M 799.31 0 A 57.09 57.09 0 0 1  856.4 57.09 L 799.31 0 A 57.09 57.09 0 0 0 856.4 57.09" fill="#fecad0"/><rect x="57.09384615384616" y="57.09384615384616" width="57.09384615384616" height="57.09384615384616" fill="#ffffff"/><path d="M 85.64 57.09 A 28.55 28.55 0 0 1  114.19 85.64 L 85.64 57.09 A 28.55 28.55 0 0 0 114.19 85.64" fill="#ffe9eb"/><path d="M 57.09 85.64 A 28.55 28.55 0 0 1  85.64 114.19 L 57.09 85.64 A 28.55 28.55 0 0 0 85.64 114.19" fill="#ffbec5"/><path d="M 85.64 114.19 A 28.55 28.55 0 0 1  114.19 85.64 L 85.64 114.19 A 28.55 28.55 0 0 0 114.19 85.64" fill="#fff7f7"/><rect x="114.18769230769232" y="57.09384615384616" width="57.09384615384616" height="57.09384615384616" fill="#ffffff"/><path d="M 171.28 57.09 A 57.09 57.09 0 0 1  228.37 114.18 L 171.28 57.09 A 57.09 57.09 0 0 0 228.37 114.18" fill="#ffc8ce"/><rect x="285.46923076923076" y="57.09384615384616" width="57.09384615384616" height="57.09384615384616" fill="#ffffff"/><path d="M 314.02 57.09 A 28.55 28.55 0 0 1  342.57 85.64 L 314.02 57.09 A 28.55 28.55 0 0 0 342.57 85.64" fill="#ffaab3"/><path d="M 285.47 85.64 A 28.55 28.55 0 0 1  314.02000000000004 114.19 L 285.47 85.64 A 28.55 28.55 0 0 0 314.02000000000004 114.19" fill="#fed7db"/><path d="M 314.02 85.64 A 28.55 28.55 0 0 1  342.57 114.19 L 314.02 85.64 A 28.55 28.55 0 0 0 342.57 114.19" fill="#fee1e5"/><rect x="399.65692307692314" y="57.09384615384616" width="57.09384615384616" height="57.09384615384616" fill="#ffffff"/><path d="M 399.66 85.64 A 28.55 28.55 0 0 1  428.21000000000004 114.19 L 399.66 85.64 A 28.55 28.55 0 0 0 428.21000000000004 114.19" fill="#ffedee"/><path d="M 628.03 114.18 A 57.09 57.09 0 0 1  685.12 57.09 L 628.03 114.18 A 57.09 57.09 0 0 0 685.12 57.09" fill="#ffa7b0"/><rect x="742.22" y="57.09384615384616" width="57.09384615384616" height="57.09384615384616" fill="#ffffff"/><path d="M 856.41 114.18 A 57.09 57.09 0 0 1  913.5 57.09 L 856.41 114.18 A 57.09 57.09 0 0 0 913.5 57.09" fill="#ffc8cd"/><path d="M 913.5 114.18 A 57.09 57.09 0 0 1  970.59 57.09 L 913.5 114.18 A 57.09 57.09 0 0 0 970.59 57.09" fill="#ffd7db"/><path d="M 171.28 114.19 A 57.09 57.09 0 0 1  228.37 171.28 L 171.28 114.19 A 57.09 57.09 0 0 0 228.37 171.28" fill="#ffd1d5"/><rect x="228.37538461538463" y="114.18769230769232" width="57.09384615384616" height="57.09384615384616" fill="#ffffff"/><path d="M 256.92 171.28 A 28.55 28.55 0 0 1  285.47 142.73 L 256.92 171.28 A 28.55 28.55 0 0 0 285.47 142.73" fill="#ffeef0"/><path d="M 456.75 171.28 A 57.09 57.09 0 0 1  513.84 114.19 L 456.75 171.28 A 57.09 57.09 0 0 0 513.84 114.19" fill="#fed2d7"/><path d="M 513.84 171.28 A 57.09 57.09 0 0 1  570.9300000000001 114.19 L 513.84 171.28 A 57.09 57.09 0 0 0 570.9300000000001 114.19" fill="#fee2e5"/><path d="M 570.94 114.19 A 57.09 57.09 0 0 1  628.0300000000001 171.28 L 570.94 114.19 A 57.09 57.09 0 0 0 628.0300000000001 171.28" fill="#fffdfd"/><rect x="742.22" y="114.18769230769232" width="57.09384615384616" height="57.09384615384616" fill="#ffffff"/><path d="M 770.77 114.19 A 28.55 28.55 0 0 1  799.3199999999999 142.74 L 770.77 114.19 A 28.55 28.55 0 0 0 799.3199999999999 142.74" fill="#fffbfb"/><path d="M 856.41 171.28 A 57.09 57.09 0 0 1  913.5 114.19 L 856.41 171.28 A 57.09 57.09 0 0 0 913.5 114.19" fill="#fec8ce"/><rect x="913.5015384615385" y="114.18769230769232" width="57.09384615384616" height="57.09384615384616" fill="#ffffff"/><path d="M 913.5 114.19 A 28.55 28.55 0 0 1  942.05 142.74 L 913.5 114.19 A 28.55 28.55 0 0 0 942.05 142.74" fill="#fed6da"/><path d="M 942.05 114.19 A 28.55 28.55 0 0 1  970.5999999999999 142.74 L 942.05 114.19 A 28.55 28.55 0 0 0 970.5999999999999 142.74" fill="#fee3e6"/><path d="M 942.05 142.73 A 28.55 28.55 0 0 1  970.5999999999999 171.28 L 942.05 142.73 A 28.55 28.55 0 0 0 970.5999999999999 171.28" fill="#fed7dc"/><path d="M 970.6 114.19 A 57.09 57.09 0 0 1  1027.69 171.28 L 970.6 114.19 A 57.09 57.09 0 0 0 1027.69 171.28" fill="#ffd8dc"/><rect x="114.18769230769232" y="171.28153846153847" width="57.09384615384616" height="57.09384615384616" fill="#ffffff"/><path d="M 171.28 228.37 A 57.09 57.09 0 0 1  228.37 171.28 L 171.28 228.37 A 57.09 57.09 0 0 0 228.37 171.28" fill="#ffe7e9"/><rect x="285.46923076923076" y="171.28153846153847" width="57.09384615384616" height="57.09384615384616" fill="#ffffff"/><path d="M 314.02 199.83 A 28.55 28.55 0 0 1  342.57 228.38000000000002 L 314.02 199.83 A 28.55 28.55 0 0 0 342.57 228.38000000000002" fill="#ffe6e9"/><path d="M 570.94 171.28 A 57.09 57.09 0 0 1  628.0300000000001 228.37 L 570.94 171.28 A 57.09 57.09 0 0 0 628.0300000000001 228.37" fill="#ffe9eb"/><path d="M 628.03 228.37 A 57.09 57.09 0 0 1  685.12 171.28 L 628.03 228.37 A 57.09 57.09 0 0 0 685.12 171.28" fill="#fff9fa"/><path d="M 228.38 228.38 A 57.09 57.09 0 0 1  285.47 285.47 L 228.38 228.38 A 57.09 57.09 0 0 0 285.47 285.47" fill="#ffbec4"/><rect x="342.56307692307695" y="228.37538461538463" width="57.09384615384616" height="57.09384615384616" fill="#ffffff"/><path d="M 342.56 256.93 A 28.55 28.55 0 0 1  371.11 228.38 L 342.56 256.93 A 28.55 28.55 0 0 0 371.11 228.38" fill="#feccd1"/><path d="M 342.56 285.47 A 28.55 28.55 0 0 1  371.11 256.92 L 342.56 285.47 A 28.55 28.55 0 0 0 371.11 256.92" fill="#ffe3e5"/><path d="M 399.66 228.38 A 57.09 57.09 0 0 1  456.75 285.47 L 399.66 228.38 A 57.09 57.09 0 0 0 456.75 285.47" fill="#ffbec4"/><path d="M 456.75 228.38 A 57.09 57.09 0 0 1  513.84 285.47 L 456.75 228.38 A 57.09 57.09 0 0 0 513.84 285.47" fill="#ffb7be"/><rect x="513.8446153846154" y="228.37538461538463" width="57.09384615384616" height="57.09384615384616" fill="#ffffff"/><path d="M 570.94 228.38 A 57.09 57.09 0 0 1  628.0300000000001 285.47 L 570.94 228.38 A 57.09 57.09 0 0 0 628.0300000000001 285.47" fill="#ffced2"/><path d="M 628.03 285.47 A 57.09 57.09 0 0 1  685.12 228.38 L 628.03 285.47 A 57.09 57.09 0 0 0 685.12 228.38" fill="#ffeff1"/><rect x="799.3138461538463" y="228.37538461538463" width="57.09384615384616" height="57.09384615384616" fill="#ffffff"/><path d="M 799.31 228.38 A 28.55 28.55 0 0 1  827.8599999999999 256.93 L 799.31 228.38 A 28.55 28.55 0 0 0 827.8599999999999 256.93" fill="#fff1f2"/><rect x="913.5015384615385" y="228.37538461538463" width="57.09384615384616" height="57.09384615384616" fill="#ffffff"/><path d="M 913.5 285.47 A 28.55 28.55 0 0 1  942.05 256.92 L 913.5 285.47 A 28.55 28.55 0 0 0 942.05 256.92" fill="#ffdcdf"/><path d="M 0 285.47 A 57.09 57.09 0 0 1  57.09 342.56000000000006 L 0 285.47 A 57.09 57.09 0 0 0 57.09 342.56000000000006" fill="#ffe1e4"/><rect x="114.18769230769232" y="285.46923076923076" width="57.09384615384616" height="57.09384615384616" fill="#ffffff"/><path d="M 114.19 285.47 A 28.55 28.55 0 0 1  142.74 314.02000000000004 L 114.19 285.47 A 28.55 28.55 0 0 0 142.74 314.02000000000004" fill="#fedfe2"/><path d="M 114.19 342.57 A 28.55 28.55 0 0 1  142.74 314.02 L 114.19 342.57 A 28.55 28.55 0 0 0 142.74 314.02" fill="#fed0d5"/><rect x="399.65692307692314" y="285.46923076923076" width="57.09384615384616" height="57.09384615384616" fill="#ffffff"/><path d="M 456.75 285.47 A 57.09 57.09 0 0 1  513.84 342.56000000000006 L 456.75 285.47 A 57.09 57.09 0 0 0 513.84 342.56000000000006" fill="#fff7f8"/><path d="M 628.03 342.56000000000006 A 57.09 57.09 0 0 1  685.12 285.47 L 628.03 342.56000000000006 A 57.09 57.09 0 0 0 685.12 285.47" fill="#fecdd2"/><path d="M 685.13 342.56000000000006 A 57.09 57.09 0 0 1  742.22 285.47 L 685.13 342.56000000000006 A 57.09 57.09 0 0 0 742.22 285.47" fill="#fed5da"/><rect x="742.22" y="285.46923076923076" width="57.09384615384616" height="57.09384615384616" fill="#ffffff"/><path d="M 770.77 285.47 A 28.55 28.55 0 0 1  799.3199999999999 314.02000000000004 L 770.77 285.47 A 28.55 28.55 0 0 0 799.3199999999999 314.02000000000004" fill="#fedee2"/><path d="M 856.41 342.56000000000006 A 57.09 57.09 0 0 1  913.5 285.47 L 856.41 342.56000000000006 A 57.09 57.09 0 0 0 913.5 285.47" fill="#fffcfc"/><rect x="0" y="342.56307692307695" width="57.09384615384616" height="57.09384615384616" fill="#ffffff"/><path d="M 0 342.56 A 28.55 28.55 0 0 1  28.55 371.11 L 0 342.56 A 28.55 28.55 0 0 0 28.55 371.11" fill="#fffcfd"/><path d="M 28.55 399.66 A 28.55 28.55 0 0 1  57.1 371.11 L 28.55 399.66 A 28.55 28.55 0 0 0 57.1 371.11" fill="#ffc5cb"/><path d="M 57.09 399.65 A 57.09 57.09 0 0 1  114.18 342.56 L 57.09 399.65 A 57.09 57.09 0 0 0 114.18 342.56" fill="#ffe2e5"/><rect x="228.37538461538463" y="342.56307692307695" width="57.09384615384616" height="57.09384615384616" fill="#ffffff"/><path d="M 256.92 371.11 A 28.55 28.55 0 0 1  285.47 342.56 L 256.92 371.11 A 28.55 28.55 0 0 0 285.47 342.56" fill="#fff9fa"/><rect x="342.56307692307695" y="342.56307692307695" width="57.09384615384616" height="57.09384615384616" fill="#ffffff"/><path d="M 371.11 342.56 A 28.55 28.55 0 0 1  399.66 371.11 L 371.11 342.56 A 28.55 28.55 0 0 0 399.66 371.11" fill="#fedde1"/><path d="M 371.11 399.66 A 28.55 28.55 0 0 1  399.66 371.11 L 371.11 399.66 A 28.55 28.55 0 0 0 399.66 371.11" fill="#fedce0"/><path d="M 399.66 399.65 A 57.09 57.09 0 0 1  456.75 342.56 L 399.66 399.65 A 57.09 57.09 0 0 0 456.75 342.56" fill="#fff1f2"/><path d="M 685.13 342.56 A 57.09 57.09 0 0 1  742.22 399.65 L 685.13 342.56 A 57.09 57.09 0 0 0 742.22 399.65" fill="#ffe7e9"/><rect x="856.4076923076924" y="342.56307692307695" width="57.09384615384616" height="57.09384615384616" fill="#ffffff"/><path d="M 884.95 342.56 A 28.55 28.55 0 0 1  913.5 371.11 L 884.95 342.56 A 28.55 28.55 0 0 0 913.5 371.11" fill="#ffa7b0"/><path d="M 57.09 456.75 A 57.09 57.09 0 0 1  114.18 399.66 L 57.09 456.75 A 57.09 57.09 0 0 0 114.18 399.66" fill="#fed9dd"/><path d="M 513.84 399.66 A 57.09 57.09 0 0 1  570.9300000000001 456.75 L 513.84 399.66 A 57.09 57.09 0 0 0 570.9300000000001 456.75" fill="#fecfd4"/><path d="M 570.94 456.75 A 57.09 57.09 0 0 1  628.0300000000001 399.66 L 570.94 456.75 A 57.09 57.09 0 0 0 628.0300000000001 399.66" fill="#fffefe"/><path d="M 628.03 456.75 A 57.09 57.09 0 0 1  685.12 399.66 L 628.03 456.75 A 57.09 57.09 0 0 0 685.12 399.66" fill="#ffa9b2"/><path d="M 970.6 456.75 A 57.09 57.09 0 0 1  1027.69 399.66 L 970.6 456.75 A 57.09 57.09 0 0 0 1027.69 399.66" fill="#ffaeb6"/><path d="M 342.56 513.84 A 57.09 57.09 0 0 1  399.65 456.75 L 342.56 513.84 A 57.09 57.09 0 0 0 399.65 456.75" fill="#fff3f5"/><rect x="399.65692307692314" y="456.75076923076927" width="57.09384615384616" height="57.09384615384616" fill="#ffffff"/><path d="M 428.2 456.75 A 28.55 28.55 0 0 1  456.75 485.3 L 428.2 456.75 A 28.55 28.55 0 0 0 456.75 485.3" fill="#fee0e3"/><path d="M 456.75 513.84 A 57.09 57.09 0 0 1  513.84 456.75 L 456.75 513.84 A 57.09 57.09 0 0 0 513.84 456.75" fill="#ffeef0"/><rect x="628.0323076923078" y="456.75076923076927" width="57.09384615384616" height="57.09384615384616" fill="#ffffff"/><path d="M 628.03 485.3 A 28.55 28.55 0 0 1  656.5799999999999 513.85 L 628.03 485.3 A 28.55 28.55 0 0 0 656.5799999999999 513.85" fill="#ffb0b8"/><path d="M 742.22 456.75 A 57.09 57.09 0 0 1  799.3100000000001 513.84 L 742.22 456.75 A 57.09 57.09 0 0 0 799.3100000000001 513.84" fill="#fed8dc"/><rect x="513.8446153846154" y="513.8446153846154" width="57.09384615384616" height="57.09384615384616" fill="#ffffff"/><path d="M 513.84 513.84 A 28.55 28.55 0 0 1  542.39 542.39 L 513.84 513.84 A 28.55 28.55 0 0 0 542.39 542.39" fill="#fff4f5"/><path d="M 542.39 542.39 A 28.55 28.55 0 0 1  570.9399999999999 513.84 L 542.39 542.39 A 28.55 28.55 0 0 0 570.9399999999999 513.84" fill="#ffeef0"/><path d="M 542.39 570.9399999999999 A 28.55 28.55 0 0 1  570.9399999999999 542.39 L 542.39 570.9399999999999 A 28.55 28.55 0 0 0 570.9399999999999 542.39" fill="#fed0d5"/><rect x="685.1261538461539" y="513.8446153846154" width="57.09384615384616" height="57.09384615384616" fill="#ffffff"/><rect x="171.28153846153847" y="570.9384615384615" width="57.09384615384616" height="57.09384615384616" fill="#ffffff"/><rect x="342.56307692307695" y="570.9384615384615" width="57.09384615384616" height="57.09384615384616" fill="#ffffff"/><path d="M 371.11 570.94 A 28.55 28.55 0 0 1  399.66 599.49 L 371.11 570.94 A 28.55 28.55 0 0 0 399.66 599.49" fill="#ffc8cd"/><path d="M 799.31 570.94 A 57.09 57.09 0 0 1  856.4 628.0300000000001 L 799.31 570.94 A 57.09 57.09 0 0 0 856.4 628.0300000000001" fill="#ffb0b8"/><rect x="913.5015384615385" y="570.9384615384615" width="57.09384615384616" height="57.09384615384616" fill="#ffffff"/><path d="M 942.05 599.49 A 28.55 28.55 0 0 1  970.5999999999999 628.04 L 942.05 599.49 A 28.55 28.55 0 0 0 970.5999999999999 628.04" fill="#fed3d8"/><path d="M 228.38 685.12 A 57.09 57.09 0 0 1  285.47 628.03 L 228.38 685.12 A 57.09 57.09 0 0 0 285.47 628.03" fill="#ffb0b8"/><rect x="342.56307692307695" y="628.0323076923078" width="57.09384615384616" height="57.09384615384616" fill="#ffffff"/><path d="M 371.11 656.58 A 28.55 28.55 0 0 1  399.66 685.13 L 371.11 656.58 A 28.55 28.55 0 0 0 399.66 685.13" fill="#ffdbdf"/><rect x="570.9384615384615" y="628.0323076923078" width="57.09384615384616" height="57.09384615384616" fill="#ffffff"/><path d="M 685.13 685.12 A 57.09 57.09 0 0 1  742.22 628.03 L 685.13 685.12 A 57.09 57.09 0 0 0 742.22 628.03" fill="#ffe5e8"/><path d="M 742.22 628.03 A 57.09 57.09 0 0 1  799.3100000000001 685.12 L 742.22 628.03 A 57.09 57.09 0 0 0 799.3100000000001 685.12" fill="#fecad0"/><rect x="970.5953846153847" y="628.0323076923078" width="57.09384615384616" height="57.09384615384616" fill="#ffffff"/><path d="M 999.14 628.03 A 28.55 28.55 0 0 1  1027.69 656.5799999999999 L 999.14 628.03 A 28.55 28.55 0 0 0 1027.69 656.5799999999999" fill="#ffe3e6"/><path d="M 970.6 656.58 A 28.55 28.55 0 0 1  999.15 685.13 L 970.6 656.58 A 28.55 28.55 0 0 0 999.15 685.13" fill="#ffe8eb"/><path d="M 999.14 685.13 A 28.55 28.55 0 0 1  1027.69 656.58 L 999.14 685.13 A 28.55 28.55 0 0 0 1027.69 656.58" fill="#ffedef"/><rect x="513.8446153846154" y="685.1261538461539" width="57.09384615384616" height="57.09384615384616" fill="#ffffff"/><path d="M 513.84 685.13 A 28.55 28.55 0 0 1  542.39 713.68 L 513.84 685.13 A 28.55 28.55 0 0 0 542.39 713.68" fill="#fff6f7"/><path d="M 513.84 742.2199999999999 A 28.55 28.55 0 0 1  542.39 713.67 L 513.84 742.2199999999999 A 28.55 28.55 0 0 0 542.39 713.67" fill="#ffeff0"/><path d="M 542.39 713.67 A 28.55 28.55 0 0 1  570.9399999999999 742.2199999999999 L 542.39 713.67 A 28.55 28.55 0 0 0 570.9399999999999 742.2199999999999" fill="#fedce0"/><rect x="628.0323076923078" y="685.1261538461539" width="57.09384615384616" height="57.09384615384616" fill="#ffffff"/><path d="M 628.03 742.2199999999999 A 28.55 28.55 0 0 1  656.5799999999999 713.67 L 628.03 742.2199999999999 A 28.55 28.55 0 0 0 656.5799999999999 713.67" fill="#ffedef"/><rect x="799.3138461538463" y="685.1261538461539" width="57.09384615384616" height="57.09384615384616" fill="#ffffff"/><path d="M 827.86 713.67 A 28.55 28.55 0 0 1  856.41 742.2199999999999 L 827.86 713.67 A 28.55 28.55 0 0 0 856.41 742.2199999999999" fill="#fee3e6"/></g></svg>